<?xml version="1.0" standalone="no"?>
<!DOCTYPE svg PUBLIC "-//W3C//DTD SVG 20010904//EN"
 "http://www.w3.org/TR/2001/REC-SVG-20010904/DTD/svg10.dtd">
<svg version="1.0" xmlns="http://www.w3.org/2000/svg"
 width="1024.000000pt" height="1024.000000pt" viewBox="0 0 1024.000000 1024.000000"
 preserveAspectRatio="xMidYMid meet">

<g transform="translate(0.000000,1024.000000) scale(0.100000,-0.100000)"
fill="#000000" stroke="none">
<path d="M4135 8774 c-191 -29 -366 -85 -539 -173 -81 -41 -139 -65 -147 -61
-66 35 -321 44 -429 16 -168 -44 -353 -166 -452 -297 -55 -73 -57 -75 -234
-169 -373 -200 -586 -366 -716 -558 -158 -234 -187 -503 -91 -822 45 -149 215
-572 308 -766 l73 -152 -102 -154 c-123 -185 -214 -360 -261 -500 -37 -113
-57 -243 -45 -306 11 -60 53 -124 98 -150 47 -26 134 -30 187 -8 19 8 35 12
35 9 0 -3 -11 -46 -25 -97 -47 -177 -60 -285 -60 -516 0 -169 4 -233 18 -300
42 -195 91 -316 147 -363 55 -47 149 -60 225 -31 22 8 47 17 55 20 12 4 19
-15 33 -88 32 -169 120 -396 213 -551 106 -176 282 -370 384 -423 73 -37 154
-39 223 -5 26 13 49 22 51 20 1 -2 24 -35 51 -73 64 -92 237 -270 344 -355
183 -146 384 -255 490 -268 107 -12 191 54 207 166 4 25 8 49 11 53 2 4 39
-20 81 -54 116 -93 274 -193 397 -253 278 -135 493 -156 739 -74 175 58 406
191 567 325 l76 64 12 -57 c25 -127 91 -182 206 -170 160 16 494 242 701 474
60 66 165 202 179 230 0 1 25 -10 55 -25 76 -37 164 -37 235 0 139 73 337 318
454 563 58 120 112 283 137 410 10 50 19 91 20 93 1 2 29 -6 63 -18 147 -49
256 2 311 147 107 283 116 671 23 1041 -14 56 -23 105 -20 108 3 4 20 1 38 -5
18 -6 57 -11 88 -11 79 0 128 30 166 100 26 48 29 65 28 130 -3 191 -127 492
-328 796 l-74 111 43 85 c81 161 289 694 340 870 99 344 24 667 -216 924 -141
150 -371 305 -691 463 -80 40 -93 51 -144 119 -193 255 -531 373 -845 293 -72
-18 -73 -18 -101 1 -51 36 -272 136 -357 161 -191 57 -230 62 -470 62 -201 -1
-235 -3 -320 -24 -130 -32 -278 -85 -373 -133 l-80 -40 -96 45 c-127 59 -223
93 -351 124 -91 22 -133 25 -310 28 -113 2 -218 1 -235 -1z m300 -234 c203
-19 385 -75 572 -176 46 -24 96 -44 112 -44 16 0 93 31 172 70 221 107 399
150 614 151 256 0 463 -55 700 -187 55 -30 110 -57 123 -60 12 -4 59 4 105 17
168 46 346 26 482 -56 71 -43 103 -73 170 -158 63 -81 79 -92 310 -217 270
-146 401 -234 516 -349 80 -79 103 -111 137 -181 57 -117 73 -184 73 -315 0
-135 -25 -239 -104 -435 -260 -644 -287 -703 -330 -708 -38 -5 -115 39 -176
99 -106 106 -288 416 -399 679 -57 135 -160 416 -226 614 -65 193 -78 220
-122 241 -94 44 -195 -21 -180 -116 3 -20 32 -109 65 -196 32 -87 86 -233 120
-326 192 -521 389 -885 586 -1083 76 -76 105 -98 180 -134 75 -37 100 -44 167
-48 l78 -5 69 -116 c122 -205 240 -456 257 -546 l7 -38 -46 6 c-26 4 -88 27
-138 52 -134 68 -215 71 -256 9 -25 -39 -20 -90 16 -169 73 -158 137 -379 161
-562 18 -135 8 -414 -19 -522 -21 -80 -34 -111 -51 -111 -4 0 -29 28 -56 63
-27 34 -58 70 -69 80 -72 65 -190 62 -226 -5 -7 -12 -15 -92 -20 -177 -9 -182
-25 -271 -80 -436 -64 -193 -181 -393 -304 -522 -38 -40 -69 -64 -85 -66 -24
-2 -25 0 -31 83 -9 134 -50 195 -137 207 -48 6 -96 -16 -116 -55 -7 -15 -19
-54 -26 -87 -49 -245 -325 -564 -648 -750 -45 -26 -85 -46 -88 -43 -3 3 3 50
12 103 28 163 9 252 -64 297 -25 15 -44 19 -73 15 -49 -6 -70 -25 -109 -93
-38 -66 -188 -209 -311 -297 -101 -72 -315 -184 -416 -217 -200 -65 -364 -45
-604 74 -229 114 -486 322 -549 446 -28 54 -63 82 -112 87 -117 12 -171 -120
-134 -327 8 -46 13 -86 10 -89 -8 -8 -96 39 -194 104 -173 116 -327 268 -436
431 -65 97 -88 149 -113 246 -28 115 -52 146 -119 155 -54 7 -95 -17 -129 -74
-24 -42 -28 -58 -28 -130 0 -78 -1 -83 -21 -83 -23 0 -103 80 -175 175 -186
246 -309 609 -309 909 0 115 -35 166 -113 166 -62 0 -99 -23 -177 -109 -87
-96 -90 -96 -119 24 -80 322 -35 715 124 1074 47 106 49 152 7 194 -23 23 -42
31 -81 35 -46 4 -62 -1 -168 -52 -119 -56 -163 -68 -163 -42 0 18 79 215 115
286 42 84 154 278 196 341 l38 56 64 6 c126 12 241 74 362 194 226 226 385
547 665 1338 42 121 80 236 83 255 8 44 -8 78 -52 107 -58 39 -136 25 -171
-31 -11 -18 -52 -127 -91 -242 -270 -796 -469 -1179 -693 -1328 -45 -30 -96
-34 -119 -8 -21 22 -81 154 -159 342 -32 80 -84 205 -115 279 -72 173 -108
281 -123 368 -18 99 -8 280 19 357 76 214 248 376 611 576 284 157 322 182
375 250 105 137 193 200 325 236 84 23 231 22 330 -1 133 -31 135 -31 198 8
196 120 428 200 629 216 54 5 100 9 103 10 3 0 55 -4 115 -9z"/>
<path d="M4033 7051 c-134 -49 -232 -162 -233 -266 0 -68 51 -115 125 -115 49
0 67 11 109 69 27 36 49 54 83 67 43 17 49 17 112 1 85 -22 103 -21 135 4 83
65 69 181 -28 232 -59 30 -229 35 -303 8z"/>
<path d="M5905 7046 c-28 -13 -59 -36 -69 -51 -26 -39 -31 -96 -13 -131 35
-68 90 -86 180 -60 103 30 133 20 218 -73 54 -60 57 -61 107 -61 42 0 57 5 83
28 27 24 31 34 31 80 -1 60 -19 104 -67 160 -77 89 -184 132 -329 132 -74 0
-100 -5 -141 -24z"/>
<path d="M4095 6486 c-84 -31 -147 -143 -130 -234 31 -171 233 -234 351 -110
122 130 47 339 -127 354 -34 3 -69 -1 -94 -10z"/>
<path d="M5975 6481 c-111 -51 -154 -174 -101 -286 27 -58 47 -78 99 -100 130
-54 269 28 284 168 17 162 -141 284 -282 218z"/>
<path d="M5006 6019 c-200 -29 -390 -118 -429 -202 -36 -75 -15 -202 60 -357
63 -130 167 -235 299 -301 l92 -46 -24 -92 c-63 -249 -256 -408 -519 -428
-130 -10 -293 37 -402 116 -87 63 -168 213 -188 345 -10 69 -56 116 -114 116
-78 0 -131 -49 -131 -119 0 -35 40 -166 75 -246 73 -165 212 -311 368 -386 29
-14 49 -31 52 -44 29 -140 129 -498 171 -615 61 -170 136 -292 242 -392 166
-157 362 -227 597 -215 138 8 243 34 347 89 190 98 320 245 408 458 37 90 97
292 155 525 l42 170 84 49 c116 68 240 194 296 302 51 96 103 251 103 304 0
79 -43 120 -125 120 -58 0 -100 -37 -110 -96 -22 -131 -70 -235 -143 -311 -66
-69 -130 -108 -225 -138 -339 -108 -663 62 -747 391 -11 42 -20 83 -20 90 0 7
30 26 68 44 37 17 91 48 121 68 111 77 215 238 261 406 41 148 13 224 -107
295 -151 88 -368 127 -557 100z m22 -1621 l-2 -63 -3 58 c-4 54 -5 57 -31 57
-23 0 -106 -26 -177 -55 -15 -6 -17 -5 -9 4 17 19 145 61 187 61 l37 0 -2 -62z
m277 48 c28 -7 100 -35 160 -60 128 -55 200 -67 258 -42 25 10 37 12 35 4 -5
-13 -23 -18 -98 -25 -50 -4 -69 1 -207 56 -84 34 -172 64 -197 67 -55 8 -53
13 -31 -141 8 -55 14 -111 13 -125 -1 -31 -36 203 -37 248 -1 29 2 32 27 32
15 0 50 -6 77 -14z m-575 -89 c-57 -28 -75 -32 -148 -32 l-83 0 5 -60 5 -60
-13 70 c-7 39 -11 71 -10 73 1 2 11 -1 22 -7 38 -20 132 -12 202 19 88 38 100
36 20 -3z m279 -131 c-7 -53 -15 -94 -17 -91 -3 2 1 47 8 100 7 53 15 94 17
91 3 -2 -1 -47 -8 -100z m735 25 c-4 -34 -9 -60 -11 -57 -3 3 -2 32 2 66 4 34
9 59 12 57 2 -3 1 -33 -3 -66z m-1227 -98 c-3 -10 -5 -2 -5 17 0 19 2 27 5 18
2 -10 2 -26 0 -35z m1210 -10 c-3 -10 -5 -4 -5 12 0 17 2 24 5 18 2 -7 2 -21
0 -30z m-1147 -312 c19 -79 86 -203 137 -256 54 -56 143 -107 224 -129 30 -8
44 -15 32 -15 -34 -1 -147 44 -197 78 -84 58 -147 148 -193 276 -16 46 -63
296 -62 328 0 12 11 -36 24 -107 13 -72 29 -150 35 -175z m657 267 c-3 -7 -5
-2 -5 12 0 14 2 19 5 13 2 -7 2 -19 0 -25z m-171 -109 c17 -18 38 -29 54 -29
31 0 72 39 94 90 8 19 15 28 16 20 0 -21 -37 -81 -63 -102 -32 -25 -74 -22
-103 7 -29 29 -64 100 -63 130 0 11 8 -4 18 -33 10 -29 31 -66 47 -83z m649
84 c-16 -110 -55 -281 -74 -326 -67 -156 -203 -274 -348 -302 -15 -3 -5 3 22
13 148 56 228 124 294 251 40 78 72 198 96 364 4 26 10 47 12 47 3 0 2 -21 -2
-47z m-480 -643 c-16 -4 -77 -7 -135 -7 l-105 1 105 6 c58 3 119 6 135 7 l30
1 -30 -8z"/>
</g>
</svg>
